<?xml version="1.0" standalone="no"?><!DOCTYPE svg PUBLIC "-//W3C//DTD SVG 1.1//EN" "http://www.w3.org/Graphics/SVG/1.1/DTD/svg11.dtd"><svg t="1716704700191" class="icon" viewBox="0 0 1171 1024" version="1.1" xmlns="http://www.w3.org/2000/svg" p-id="4130" xmlns:xlink="http://www.w3.org/1999/xlink" width="228.7109375" height="200"><path d="M1015.418 812.926H176.005a60.233 60.233 0 1 0 0 120.467h839.413a60.233 60.233 0 1 0 0-120.467z m-2.89-221.177a80.954 80.954 0 0 0-88.183-79.99H266.596a80.954 80.954 0 0 0-87.7 79.99v180.7h833.631zM266.595 471.764h175.4V311.302h-175.4z m416.816-160.462H507.53v160.462h175.882z m240.933 0h-175.4v160.462h175.4zM321.53 270.825a21.684 21.684 0 0 1-11.083-19.756c0-19.757 16.866-53.97 43.85-53.97s43.85 37.586 43.85 53.97a21.684 21.684 0 0 1-11.083 19.756 55.415 55.415 0 0 0 54.933-60.233 158.534 158.534 0 0 0-88.182-120.467 159.016 159.016 0 0 0-87.7 120.467 55.897 55.897 0 0 0 55.415 60.233z m240.934 0a21.684 21.684 0 0 1-11.083-19.756c0-19.757 16.383-53.97 43.85-53.97s43.85 37.586 43.85 53.97a21.684 21.684 0 0 1-11.083 19.756 55.415 55.415 0 0 0 55.415-60.233 159.498 159.498 0 0 0-88.664-120.467 158.534 158.534 0 0 0-87.218 120.467 55.897 55.897 0 0 0 55.415 60.233z m240.934 0a21.684 21.684 0 0 1-11.083-19.756c0-19.757 16.865-53.97 43.85-53.97s44.331 37.586 44.331 53.97a21.684 21.684 0 0 1-11.082 19.756 55.415 55.415 0 0 0 55.414-60.233 159.498 159.498 0 0 0-89.145-120.467 158.053 158.053 0 0 0-87.7 120.467 55.415 55.415 0 0 0 54.451 60.233z" p-id="4131"></path></svg>